# xmcd
#
# Track frame offsets: 
#        150
#        13498
#        29338
#        41080
#        55180
#        68193
#        83790
#        97828
#        112083
#        124653
#
# Disc length: 1829 seconds
#
# Revision: 3
# Processed by: cddbd v1.5.1PL2 Copyright (c) Steve Scherf et al.
# Submitted via: ExactAudioCopy v0.95b3
#
DISCID=8407230a
DTITLE=Larry Boone - One Way To Go
DYEAR=1991
DGENRE=Country
TTITLE0=Rock On The Road
TTITLE1=I Need A Miracle
TTITLE2=One Way To Go
TTITLE3=It Wouldn't Kill Me
TTITLE4=Keeper Of My Heart
TTITLE5=Standing In The River
TTITLE6=To Be With You
TTITLE7=All I Have To Offer You Is Me
TTITLE8=I Still Do
TTITLE9=Where My Heart Aches To Be
EXTD=
EXTT0=
EXTT1=
EXTT2=
EXTT3=
EXTT4=
EXTT5=
EXTT6=
EXTT7=
EXTT8=
EXTT9=
PLAYORDER=
